<svg xmlns="http://www.w3.org/2000/svg" xmlns:xlink="http://www.w3.org/1999/xlink" version="1.1" x="0px" y="0px" viewBox="0 0 72 90" style="enable-background:new 0 0 72 72;" xml:space="preserve"><g><circle cx="36" cy="63" r="7"/><path d="M35.03,52.26C35.15,52.69,35.55,53,36,53s0.85-0.31,0.97-0.74c2.47-9.33,4.28-15.66,5.59-20.28C45.41,22.01,46,19.94,46,13   c0-5.51-4.49-10-10-10S26,7.49,26,13c0,6.94,0.59,9.01,3.44,18.98C30.76,36.6,32.56,42.92,35.03,52.26z"/><g><path d="M29.84,40.74c-3.06,0.74-6.02,2.04-8.69,3.9c-0.45,0.32-0.56,0.94-0.25,1.39l5.71,8.21c0.15,0.22,0.38,0.37,0.65,0.41    c0.26,0.05,0.53-0.01,0.75-0.16c1.53-1.07,3.22-1.79,4.98-2.17C31.78,47.8,30.74,43.99,29.84,40.74z"/><path d="M50.85,44.65c-2.68-1.87-5.63-3.16-8.69-3.9c-0.9,3.24-1.94,7.05-3.14,11.58c1.76,0.39,3.45,1.11,4.98,2.17    c0.17,0.12,0.37,0.18,0.57,0.18c0.06,0,0.12,0,0.18-0.02c0.26-0.05,0.49-0.2,0.65-0.41l5.71-8.21    C51.42,45.58,51.3,44.96,50.85,44.65z"/></g><g><path d="M27.52,32.53c-0.71-2.49-1.29-4.5-1.75-6.24c-4.64,1.19-9.11,3.2-13.18,6.04c-0.45,0.32-0.56,0.94-0.25,1.39l5.71,8.21    c0.15,0.22,0.38,0.37,0.65,0.41c0.26,0.05,0.53-0.01,0.75-0.16c2.95-2.06,6.21-3.49,9.59-4.32    C28.46,35.85,27.96,34.09,27.52,32.53z"/><path d="M59.41,32.33c-4.07-2.84-8.54-4.85-13.18-6.04c-0.46,1.73-1.04,3.75-1.75,6.24c-0.45,1.56-0.95,3.32-1.51,5.33    c3.38,0.83,6.63,2.26,9.59,4.32c0.17,0.12,0.37,0.18,0.57,0.18c0.06,0,0.12,0,0.18-0.02c0.26-0.05,0.49-0.2,0.65-0.41l5.71-8.21    C59.98,33.26,59.86,32.64,59.41,32.33z"/></g><g><path d="M24,13c0-0.59,0.06-1.16,0.14-1.73C17.04,12.79,10.18,15.7,4.01,20c-0.45,0.32-0.56,0.94-0.25,1.39l5.72,8.22    c0.15,0.22,0.38,0.37,0.65,0.41c0.26,0.04,0.53-0.01,0.75-0.16c4.37-3.05,9.18-5.21,14.17-6.48C24.24,19.89,24,17.31,24,13z"/><path d="M67.99,20c-6.17-4.3-13.03-7.21-20.13-8.74C47.94,11.84,48,12.41,48,13c0,4.31-0.24,6.89-1.04,10.38    c4.99,1.28,9.8,3.43,14.17,6.48c0.17,0.12,0.37,0.18,0.57,0.18c0.06,0,0.12-0.01,0.18-0.02c0.26-0.05,0.49-0.2,0.65-0.41    l5.72-8.22C68.56,20.94,68.44,20.32,67.99,20z"/></g></g></svg>